<svg xmlns="http://www.w3.org/2000/svg" width="1180" height="2" viewBox="0 0 1180 2" fill="none">
<path d="M1086.44 0.246154C1060.84 0.2 1034.81 0.153846 1008.77 0.107692C1000.39 0.0923077 991.56 0.0923077 983.175 0.0769231C964.642 0.0615385 946.108 0.0461538 927.574 0.0307692C917.424 0.0153846 906.834 0.0153846 896.684 0C893.595 0 890.506 0 887.859 0C881.239 0 874.62 0 867.56 0C837.111 0 806.663 0 776.214 0C769.154 0 761.652 0 754.592 0.0153846C736.499 0.0307692 718.848 0.0307692 700.755 0.0461539C680.456 0.0615385 660.157 0.0615385 639.858 0.0769231C607.204 0.107692 574.107 0.138462 541.453 0.169231C522.477 0.184615 503.502 0.2 484.527 0.215385C451.872 0.261538 419.218 0.307692 386.563 0.353846C368.47 0.384615 350.819 0.4 332.726 0.430769C298.748 0.507692 264.769 0.569231 230.79 0.630769C212.698 0.661538 194.605 0.692308 176.513 0.738461C142.975 0.830769 108.997 0.938461 75.4592 1.04615C68.3987 1.06154 60.8969 1.09231 53.3951 1.10769C39.2741 1.15385 24.7118 1.23077 10.1495 1.29231C9.26691 1.29231 8.38435 1.30769 7.50179 1.30769C5.73666 1.30769 4.41282 1.33846 3.08897 1.38462C0.882563 1.46154 0 1.55385 0 1.64615C0 1.73846 0.882563 1.83077 3.08897 1.89231C4.8541 1.95385 7.94307 2 10.1495 2C27.8007 1.93846 45.0107 1.86154 62.662 1.8C78.9894 1.75385 95.3168 1.70769 111.644 1.66154C129.296 1.61538 146.947 1.55385 165.039 1.50769C172.1 1.49231 179.16 1.46154 186.662 1.44615C214.463 1.4 241.822 1.33846 269.623 1.29231C286.833 1.26154 304.043 1.23077 321.253 1.2C328.314 1.18462 335.374 1.16923 342.435 1.15385C369.794 1.10769 397.153 1.07692 424.513 1.03077C441.282 1.01538 457.609 0.984615 474.378 0.969231C480.114 0.969231 485.41 0.953846 491.146 0.953846C520.712 0.923077 550.278 0.907692 579.844 0.876923C596.171 0.861538 612.94 0.846154 629.268 0.830769C635.004 0.830769 641.182 0.815385 646.919 0.815385C677.367 0.8 707.816 0.8 738.705 0.784615C757.681 0.784615 776.656 0.769231 795.631 0.769231C827.844 0.769231 860.499 0.769231 892.713 0.784615C898.891 0.784615 905.51 0.8 911.688 0.8C929.78 0.815385 947.432 0.830769 965.524 0.861539C978.763 0.876923 992.442 0.892308 1005.68 0.907692C1015.39 0.923077 1024.66 0.938462 1034.36 0.953846C1062.16 1 1090.41 1.06154 1118.21 1.12308C1125.27 1.13846 1132.33 1.15385 1139.39 1.16923C1146.89 1.18462 1154.83 1.2 1162.34 1.23077C1163.66 1.23077 1164.54 1.24615 1165.87 1.26154C1168.96 1.27692 1171.6 1.27692 1174.25 1.21538C1176.9 1.16923 1178.66 1.07692 1179.55 0.984615C1181.31 0.784615 1177.78 0.569231 1171.6 0.507692C1166.31 0.461538 1161.01 0.446154 1156.16 0.415385C1152.63 0.4 1149.1 0.384615 1145.57 0.384615C1138.51 0.353846 1131.45 0.353846 1124.83 0.323077C1112.47 0.307692 1099.23 0.276923 1086.44 0.246154Z" fill="#3E5674" fill-opacity="0.85"/>
</svg>